<mxfile host="app.diagrams.net" modified="2024-04-28T08:53:29.826Z" agent="Mozilla/5.0 (X11; Linux x86_64; rv:125.0) Gecko/20100101 Firefox/125.0" version="24.3.1" etag="lqKdkNB1onWpDKBUCXKi" type="github">
  <diagram name="Page-1" id="bc4MiWyPBKACxx70WyI5">
    <mxGraphModel>
      <root>
        <mxCell id="0" />
        <mxCell id="1" parent="0" />
      </root>
    </mxGraphModel>
  </diagram>
</mxfile>
